<svg width="28" height="28" viewBox="0 0 28 28" fill="none" xmlns="http://www.w3.org/2000/svg">
<path d="M6.24082 23.8891C4.69336 22.3416 3.63954 20.37 3.21261 18.2236C2.78567 16.0772 3.0048 13.8524 3.84229 11.8306C4.67978 9.80871 6.098 8.08061 7.91763 6.86478C9.73725 5.64895 11.8765 5 14.065 5C16.2534 5 18.3927 5.64895 20.2123 6.86478C22.032 8.08061 23.4502 9.80871 24.2877 11.8306C25.1252 13.8524 25.3443 16.0772 24.9174 18.2236C24.4904 20.37 23.4366 22.3416 21.8892 23.8891M18.9828 11.1471L14.065 16.0649L18.9828 11.1471Z" fill="url(#paint0_linear_34_206)"/>
<path d="M6.24082 23.8891C4.69336 22.3416 3.63954 20.37 3.21261 18.2236C2.78567 16.0772 3.0048 13.8524 3.84229 11.8306C4.67978 9.80871 6.098 8.08061 7.91763 6.86478C9.73725 5.64895 11.8765 5 14.065 5C16.2534 5 18.3927 5.64895 20.2123 6.86478C22.032 8.08061 23.4502 9.80871 24.2877 11.8306C25.1252 13.8524 25.3443 16.0772 24.9174 18.2236C24.4904 20.37 23.4366 22.3416 21.8892 23.8891M18.9828 11.1471L14.065 16.0649" stroke="black" stroke-width="2" stroke-linecap="round" stroke-linejoin="round"/>
<defs>
<linearGradient id="paint0_linear_34_206" x1="3" y1="14.4445" x2="25.13" y2="14.4445" gradientUnits="userSpaceOnUse">
<stop stop-color="#CAF7A8"/>
<stop offset="1" stop-color="#FF3930"/>
</linearGradient>
</defs>
</svg>
