<svg width="28" height="28" viewBox="0 0 28 28" fill="none" xmlns="http://www.w3.org/2000/svg">
<path d="M8.5 7C11.5372 7 14 9.3688 14 12.2908V13H3.737C3.64057 13.0007 3.54495 12.9827 3.45561 12.9471C3.36627 12.9115 3.28496 12.8589 3.21633 12.7924C3.0801 12.6595 3.00242 12.4794 3 12.2908C3 9.3688 5.46278 7 8.5 7ZM19.5 19C16.4628 19 14 16.6312 14 13.7092V13H24.263C24.67 13 25 13.318 25 13.7092C25 16.6312 22.5372 19 19.5 19Z" fill="#65BBF3"/>
<path d="M14 13V12.2908C14 9.3688 11.5372 7 8.5 7C5.46278 7 3 9.3688 3 12.2908C3.00242 12.4794 3.0801 12.6595 3.21633 12.7924C3.28496 12.8589 3.36627 12.9115 3.45561 12.9471C3.54495 12.9827 3.64057 13.0007 3.737 13H14ZM14 13V13.7092C14 16.6312 16.4628 19 19.5 19C22.5372 19 25 16.6312 25 13.7092C25 13.318 24.67 13 24.263 13H14Z" stroke="black" stroke-width="2" stroke-linecap="round" stroke-linejoin="round"/>
<path d="M13 14H12.286C9.3664 14 7 16.4628 7 19.5C7 22.5372 9.3664 25 12.286 25C12.3804 25.0008 12.474 24.982 12.561 24.9448C12.6481 24.9076 12.7268 24.8528 12.7924 24.7836C12.8596 24.7143 12.9126 24.632 12.9483 24.5415C12.9839 24.4511 13.0015 24.3543 13 24.2569V14ZM13 14H13.714C16.6336 14 19 11.5372 19 8.50001C19 5.4628 16.6336 3.00002 13.714 3.00002C13.6202 2.99923 13.5272 3.01777 13.4405 3.05453C13.3539 3.09129 13.2755 3.1455 13.21 3.21391C13.1428 3.28263 13.0896 3.36424 13.0535 3.45404C13.0175 3.54383 12.9993 3.64002 13 3.73702V14Z" stroke="black" stroke-width="2" stroke-linecap="round" stroke-linejoin="round"/>
</svg>
