<svg width="28" height="28" viewBox="0 0 28 28" fill="none" xmlns="http://www.w3.org/2000/svg">
<path d="M7.125 3C7.26483 3 7.37625 3.04951 7.43945 3.10449C7.46942 3.13065 7.48501 3.15481 7.49219 3.16992C7.49899 3.18439 7.5 3.19431 7.5 3.2002V5.4248L8.42773 5.49219L23.667 6.60059C23.7976 6.61015 23.8947 6.66212 23.9482 6.71289C23.9738 6.73713 23.9871 6.75787 23.9932 6.77148C23.9991 6.78473 24 6.79408 24 6.7998V11.6006C24 11.6063 23.9991 11.6157 23.9932 11.6289C23.987 11.6425 23.9736 11.6634 23.9482 11.6875C23.8947 11.7382 23.7974 11.7893 23.667 11.7988L8.42773 12.9062L7.5 12.9736V24.5996H9.875C10.015 24.5996 10.1263 24.65 10.1895 24.7051C10.2194 24.7312 10.235 24.7544 10.2422 24.7695C10.2491 24.784 10.25 24.7939 10.25 24.7998C10.25 24.8057 10.249 24.8156 10.2422 24.8301C10.235 24.8452 10.2194 24.8694 10.1895 24.8955C10.1262 24.9505 10.0148 25 9.875 25H4.375C4.23517 25 4.12375 24.9505 4.06055 24.8955C4.03058 24.8694 4.01499 24.8452 4.00781 24.8301C4.00101 24.8156 4 24.8057 4 24.7998C4.00002 24.7939 4.00095 24.784 4.00781 24.7695C4.01499 24.7544 4.03058 24.7312 4.06055 24.7051C4.12371 24.65 4.23496 24.5996 4.375 24.5996H6.75V3.2002C6.75 3.19431 6.75101 3.18439 6.75781 3.16992C6.76499 3.15481 6.78058 3.13065 6.81055 3.10449C6.85788 3.06332 6.93231 3.02535 7.02539 3.00879L7.125 3ZM23.25 6.97363L22.3223 6.90625L18.1973 6.60645L17.125 6.52832V11.8701L18.1973 11.792L22.3223 11.4922L23.25 11.4248V6.97363ZM13.625 6.27344L12.6973 6.20605L8.57227 5.90625L7.5 5.82812V12.5713L8.57227 12.4932L12.6973 12.1934L13.625 12.126V6.27344Z" fill="#65BBF3" stroke="black" stroke-width="2"/>
</svg>
