<svg width="28" height="28" viewBox="0 0 28 28" fill="none" xmlns="http://www.w3.org/2000/svg">
<path d="M6.76667 16.525C5.71178 17.134 4.88734 18.0741 4.4212 19.1995C3.95506 20.3248 3.87328 21.5726 4.18855 22.7491C4.50381 23.9257 5.19849 24.9654 6.16485 25.7069C7.13122 26.4484 8.31526 26.8503 9.53333 26.8503C10.7514 26.8503 11.9354 26.4484 12.9018 25.7069C13.8682 24.9654 14.5629 23.9257 14.8781 22.7491C15.1934 21.5726 15.1116 20.3248 14.6455 19.1995C14.1793 18.0741 13.3549 17.134 12.3 16.525V4.76666C12.3 4.0329 12.0085 3.32919 11.4897 2.81034C10.9708 2.29149 10.2671 2 9.53333 2C8.79957 2 8.09585 2.29149 7.577 2.81034C7.05815 3.32919 6.76667 4.0329 6.76667 4.76666V16.525ZM6.76667 10.3H12.3H6.76667ZM17.8333 10.3H26.1333H17.8333ZM21.9833 6.15V14.45V6.15Z" fill="#FFB366"/>
<path d="M6.76667 10.3H12.3M17.8333 10.3H26.1333M21.9833 6.15V14.45M6.76667 16.525C5.71178 17.134 4.88734 18.0741 4.4212 19.1995C3.95506 20.3248 3.87328 21.5726 4.18855 22.7491C4.50381 23.9257 5.19849 24.9654 6.16485 25.7069C7.13122 26.4484 8.31526 26.8503 9.53333 26.8503C10.7514 26.8503 11.9354 26.4484 12.9018 25.7069C13.8682 24.9654 14.5629 23.9257 14.8781 22.7491C15.1934 21.5726 15.1116 20.3248 14.6455 19.1995C14.1793 18.0741 13.3549 17.134 12.3 16.525V4.76666C12.3 4.0329 12.0085 3.32919 11.4897 2.81034C10.9708 2.29149 10.2671 2 9.53333 2C8.79957 2 8.09585 2.29149 7.577 2.81034C7.05815 3.32919 6.76667 4.0329 6.76667 4.76666V16.525Z" stroke="#002745" stroke-width="2" stroke-linecap="round" stroke-linejoin="round"/>
</svg>
