<svg width="20" height="20" viewBox="0 0 20 20" fill="none" xmlns="http://www.w3.org/2000/svg">
<path d="M7.13333 3.075C6.2234 3.45166 5.39656 4.00383 4.7 4.7M3.075 7.13333C2.69713 8.04192 2.50175 9.01598 2.5 10M3.075 12.8667C3.45166 13.7766 4.00383 14.6034 4.7 15.3M7.13333 16.925C8.04192 17.3029 9.01598 17.4982 10 17.5M12.8667 16.925C13.7766 16.5483 14.6034 15.9962 15.3 15.3M16.925 12.8667C17.3029 11.9581 17.4982 10.984 17.5 10M16.925 7.13333C16.5483 6.2234 15.9962 5.39656 15.3 4.7M12.8667 3.075C11.9581 2.69713 10.984 2.50175 10 2.5M7.5 10H12.5M10 7.5V12.5" stroke="#83C2F2" stroke-width="2" stroke-linecap="round" stroke-linejoin="round"/>
</svg>
