<svg width="28" height="28" viewBox="0 0 28 28" fill="none" xmlns="http://www.w3.org/2000/svg">
<path d="M15.0833 16.6L16.6 15.0833L14 12.4833V7.49996H11.8333V13.35L15.0833 16.6ZM10.9667 20.2562C11.2556 19.3895 11.7656 18.6718 12.4969 18.1031C13.2281 17.5343 14.0722 17.25 15.0292 17.25H19.1458C19.5792 16.6361 19.9132 15.9635 20.1479 15.2323C20.3826 14.501 20.5 13.7291 20.5 12.9166C20.5 10.8041 19.7642 9.01211 18.2927 7.54058C16.8212 6.06906 15.0292 5.33329 12.9167 5.33329C10.8042 5.33329 9.01216 6.06906 7.54063 7.54058C6.0691 9.01211 5.33334 10.8041 5.33334 12.9166C5.33334 14.6861 5.86146 16.2434 6.91771 17.5885C7.97396 18.9336 9.32362 19.8229 10.9667 20.2562ZM15.0833 25.9166C14.0361 25.9166 13.1153 25.5871 12.3208 24.9281C11.5264 24.2691 11.0299 23.443 10.8313 22.45C8.62848 21.9805 6.80035 20.8611 5.34688 19.0916C3.89341 17.3222 3.16667 15.2638 3.16667 12.9166C3.16667 10.2083 4.11459 7.90621 6.01042 6.01038C7.90626 4.11454 10.2083 3.16663 12.9167 3.16663C15.625 3.16663 17.9271 4.11454 19.8229 6.01038C21.7188 7.90621 22.6667 10.2083 22.6667 12.9166C22.6667 13.693 22.5809 14.4468 22.4094 15.1781C22.2379 15.9093 21.9896 16.6 21.6646 17.25C22.8563 17.25 23.8629 17.6743 24.6844 18.5229C25.5059 19.3715 25.9167 20.3916 25.9167 21.5833C25.9167 22.775 25.4924 23.7951 24.6438 24.6437C23.7951 25.4923 22.775 25.9166 21.5833 25.9166H15.0833ZM15.0833 23.75H21.5833C22.1792 23.75 22.6892 23.5378 23.1135 23.1135C23.5379 22.6892 23.75 22.1791 23.75 21.5833C23.75 20.9875 23.5379 20.4774 23.1135 20.0531C22.6892 19.6288 22.1792 19.4166 21.5833 19.4166H15.0833C14.4875 19.4166 13.9774 19.6288 13.5531 20.0531C13.1288 20.4774 12.9167 20.9875 12.9167 21.5833C12.9167 22.1791 13.1288 22.6892 13.5531 23.1135C13.9774 23.5378 14.4875 23.75 15.0833 23.75ZM14.3115 22.3552C14.1038 22.1475 14 21.8902 14 21.5833C14 21.2763 14.1038 21.0191 14.3115 20.8114C14.5191 20.6038 14.7764 20.5 15.0833 20.5C15.3903 20.5 15.6476 20.6038 15.8552 20.8114C16.0629 21.0191 16.1667 21.2763 16.1667 21.5833C16.1667 21.8902 16.0629 22.1475 15.8552 22.3552C15.6476 22.5628 15.3903 22.6666 15.0833 22.6666C14.7764 22.6666 14.5191 22.5628 14.3115 22.3552ZM17.5615 22.3552C17.3538 22.1475 17.25 21.8902 17.25 21.5833C17.25 21.2763 17.3538 21.0191 17.5615 20.8114C17.7691 20.6038 18.0264 20.5 18.3333 20.5C18.6403 20.5 18.8976 20.6038 19.1052 20.8114C19.3129 21.0191 19.4167 21.2763 19.4167 21.5833C19.4167 21.8902 19.3129 22.1475 19.1052 22.3552C18.8976 22.5628 18.6403 22.6666 18.3333 22.6666C18.0264 22.6666 17.7691 22.5628 17.5615 22.3552ZM20.8115 22.3552C20.6038 22.1475 20.5 21.8902 20.5 21.5833C20.5 21.2763 20.6038 21.0191 20.8115 20.8114C21.0191 20.6038 21.2764 20.5 21.5833 20.5C21.8903 20.5 22.1476 20.6038 22.3552 20.8114C22.5629 21.0191 22.6667 21.2763 22.6667 21.5833C22.6667 21.8902 22.5629 22.1475 22.3552 22.3552C22.1476 22.5628 21.8903 22.6666 21.5833 22.6666C21.2764 22.6666 21.0191 22.5628 20.8115 22.3552Z" fill="#002745"/>
</svg>
