<svg width="10" height="19" viewBox="0 0 10 19" fill="none" xmlns="http://www.w3.org/2000/svg">
<path d="M5.00012 0C5.18937 0 5.3711 0.0704915 5.505 0.195312L9.79016 4.19531C9.80855 4.21259 9.82663 4.23095 9.8429 4.25L9.85852 4.26953L9.88879 4.30957L9.89465 4.31934L9.89954 4.32617L9.9093 4.34375L9.92688 4.37305L9.93176 4.38477L9.9386 4.39844L9.94739 4.41895L9.95813 4.44238L9.96301 4.45898L9.96887 4.47168L9.97278 4.48926L9.98157 4.51367L9.9845 4.53223L9.9884 4.54883L9.99036 4.56641L9.99426 4.58887L9.99622 4.6084L9.99817 4.62695V4.64453L10.0001 4.66699L9.99817 4.68848V4.70605L9.99622 4.72363L9.99426 4.74512L9.99133 4.76367L9.9884 4.78418L9.9845 4.7998L9.98157 4.82031L9.97278 4.84375L9.96887 4.86133L9.96301 4.87402L9.95813 4.8916L9.94739 4.91309L9.9386 4.93555L9.93176 4.94824L9.92688 4.95996L9.9093 4.98828L9.89954 5.00684L9.89465 5.01367L9.88879 5.02441L9.85852 5.0625L9.84973 5.0752L9.8468 5.07715L9.8429 5.08398C9.81015 5.12182 9.77232 5.15622 9.73157 5.18652L9.72571 5.19043L9.71008 5.20117L9.66809 5.22949L9.65735 5.23535L9.65051 5.24023L9.63 5.24902L9.59973 5.26562L9.58704 5.26953L9.57434 5.27637L9.54993 5.28418L9.52649 5.29492L9.50891 5.29883L9.49426 5.30469L9.47473 5.30762L9.44934 5.31641L9.42883 5.31836L9.41125 5.32227L9.39172 5.32422L9.36926 5.3291L9.34583 5.33008L9.32727 5.33203H9.30872L9.28528 5.33301H0.714966C0.0799088 5.33254 -0.239233 4.61523 0.210083 4.19531L4.49524 0.195312C4.62903 0.0704575 4.81096 0.000144499 5.00012 0Z" fill="#7591A5"/>
<path d="M4.99902 18.333C4.80982 18.3329 4.62796 18.2626 4.49414 18.1377L0.208985 14.1377C0.19067 14.1205 0.173423 14.102 0.157227 14.083L0.152344 14.0781L0.141602 14.0635L0.111329 14.0234L0.104493 14.0137L0.0996098 14.0068L0.0898441 13.9893L0.072266 13.96L0.0673832 13.9482L0.0605473 13.9346L0.0517582 13.9141L0.041016 13.8906L0.0361332 13.874L0.0302738 13.8613L0.0273441 13.8437L0.0185551 13.8193L0.0156254 13.8008L0.0117191 13.7842L0.00878946 13.7666L0.00488321 13.7441L0.00390665 13.7246L0.000976967 13.7061L0.000976969 13.6885L4.08001e-07 13.666L0.000976972 13.6445L0.000976974 13.627L0.00390666 13.6094L0.00488323 13.5879L0.00878948 13.5693L0.0117192 13.5488L0.0156254 13.5332L0.0185551 13.5127L0.0273442 13.4893L0.0302739 13.4717L0.0361332 13.459L0.0410161 13.4414L0.0517582 13.4199L0.0605473 13.3975L0.0673832 13.3848L0.0722661 13.373L0.0898442 13.3447L0.0996098 13.3262L0.104493 13.3193L0.111329 13.3086L0.141602 13.2705L0.149415 13.2578L0.152344 13.2559L0.157227 13.249C0.189884 13.2113 0.226946 13.1767 0.267579 13.1465L0.274415 13.1426L0.29004 13.1318L0.331055 13.1035L0.342774 13.0977L0.34961 13.0928L0.369141 13.084L0.399415 13.0674L0.413086 13.0635L0.425782 13.0566L0.450196 13.0488L0.473633 13.0381L0.490235 13.0342L0.50586 13.0283L0.524415 13.0254L0.550782 13.0166L0.57129 13.0146L0.588868 13.0107L0.608399 13.0088L0.63086 13.0039L0.653321 13.0029L0.671875 13.001L0.69043 13.001L0.713868 13L9.28418 13C9.91981 13 10.239 13.7177 9.78906 14.1377L5.50391 18.1377C5.37 18.2625 5.18829 18.333 4.99902 18.333Z" fill="#1E5379"/>
</svg>
