<svg width="28" height="28" viewBox="0 0 28 28" fill="none" xmlns="http://www.w3.org/2000/svg">
<path d="M12.6699 1.35156C13.6728 0.724176 14.9898 0.962806 15.6973 1.85742L15.8066 2.00781L22.4873 11.9287C23.1023 12.9627 23.5121 14.1039 23.6943 15.29L23.7588 15.8047L23.7891 16.2256L23.792 16.2598L23.7969 16.2939L23.7998 16.3477L23.7979 16.3955L23.7969 16.4248L23.7979 16.4531C23.8645 19.1919 22.7135 21.916 20.4775 23.834L20.2578 24.0176C16.5795 26.9931 11.2223 26.9932 7.54395 24.0176C5.19126 22.1147 3.96281 19.3469 4.01074 16.54L4.0127 16.4668L4.00293 16.3945C3.99781 16.3545 3.99956 16.3139 4.00781 16.2744L4.02246 16.2041L4.02734 16.1328C4.10382 14.9331 4.40704 13.7605 4.91992 12.6768L5.15234 12.2178L5.35156 11.8662L12.0029 1.99805L12.0039 1.99707C12.178 1.73824 12.4041 1.51783 12.6699 1.35156ZM14.2139 1.75586C13.9184 1.69589 13.6111 1.72101 13.3281 1.83008L13.3877 2.15332L13.2461 1.86621L13.1416 1.91797L13.0635 1.95703L12.9941 2.00781L12.8809 2.08984L12.8311 2.13867L12.7803 2.18848L12.7324 2.23438L12.6914 2.28711L12.6465 2.34375L12.624 2.37305L12.6035 2.40332L5.97754 12.2324L5.96289 12.2539L5.94922 12.2773C5.48798 13.047 5.14963 13.8839 4.94629 14.7578L4.66113 15.9844H23.1504L22.8672 14.7598C22.7037 14.0523 22.4484 13.3691 22.1084 12.7275L22.0967 12.7061L21.9053 12.3643L21.8848 12.3291L21.8623 12.2949L15.1982 2.40234L15.1855 2.38281L15.1719 2.36523L15.0908 2.26367C14.9203 2.06934 14.7045 1.92015 14.4629 1.82812L14.3398 1.78711L14.2139 1.75586Z" fill="#65BBF3" stroke="black" stroke-width="2"/>
</svg>
