<svg width="36" height="20" viewBox="0 0 36 20" fill="none" xmlns="http://www.w3.org/2000/svg">
<g clip-path="url(#clip0_65_950)">
<rect width="36" height="20" rx="10" fill="#C5C5C5"/>
<g clip-path="url(#clip1_65_950)">
<path d="M14.7279 9.9706H18.9706M21.799 9.9706H23.2132M22.5061 5.02085L23.2125 4.96923C24.5387 4.96933 25.8105 5.49623 26.7482 6.43404C27.6858 7.37184 28.2126 8.64373 28.2125 9.96989C28.2124 11.2961 27.6855 12.5679 26.7477 13.5055C25.8099 14.4432 24.538 14.9699 23.2118 14.9698L22.5061 14.9203M18.9706 -2.75732V22.6985M15.435 14.9203L14.7767 15.0172C13.4426 15.0092 12.1654 14.4757 11.2221 13.5323C10.2787 12.589 9.74517 11.3118 9.73718 9.97767C9.7332 9.31996 9.85982 8.66799 10.1097 8.05958C10.3595 7.45116 10.7277 6.89839 11.1928 6.43331C11.6579 5.96822 12.2106 5.60008 12.819 5.35022C13.4275 5.10035 14.0794 4.97374 14.7371 4.97772L15.435 5.02085" stroke="white" stroke-width="2" stroke-linecap="round" stroke-linejoin="round"/>
</g>
</g>
<defs>
<clipPath id="clip0_65_950">
<rect width="36" height="20" fill="white"/>
</clipPath>
<clipPath id="clip1_65_950">
<rect width="24" height="24" fill="white" transform="translate(18.9706 -7) rotate(45)"/>
</clipPath>
</defs>
</svg>
