<svg width="24" height="24" viewBox="0 0 24 24" fill="none" xmlns="http://www.w3.org/2000/svg">
<path d="M11.1116 11.9936C11.1116 12.2294 11.2052 12.4555 11.3719 12.6222C11.5386 12.7889 11.7647 12.8825 12.0005 12.8825C12.2362 12.8825 12.4623 12.7889 12.629 12.6222C12.7957 12.4555 12.8893 12.2294 12.8893 11.9936C12.8893 11.7579 12.7957 11.5318 12.629 11.3651C12.4623 11.1984 12.2362 11.1047 12.0005 11.1047C11.7647 11.1047 11.5386 11.1984 11.3719 11.3651C11.2052 11.5318 11.1116 11.7579 11.1116 11.9936Z" stroke="#001B30" stroke-width="2" stroke-linecap="round" stroke-linejoin="round"/>
<path d="M16.1035 13.704C16.3851 13.0286 16.4956 12.2941 16.4251 11.5657C16.3546 10.8374 16.1054 10.1377 15.6996 9.5288C15.2937 8.9199 14.7438 8.42063 14.0987 8.07531C13.4535 7.73 12.7331 7.54932 12.0013 7.54932C11.2696 7.54932 10.5491 7.73 9.90399 8.07531C9.25883 8.42063 8.70893 8.9199 8.30308 9.5288C7.89724 10.1377 7.64802 10.8374 7.57754 11.5657C7.50707 12.2941 7.61753 13.0286 7.89911 13.704" stroke="#001B30" stroke-width="2" stroke-linecap="round" stroke-linejoin="round"/>
<path d="M19.3844 15.0773C19.8911 13.8616 20.0897 12.5396 19.9627 11.2287C19.8357 9.91776 19.3871 8.65846 18.6565 7.56258C17.926 6.4667 16.9362 5.56814 15.775 4.94666C14.6138 4.32517 13.3171 4 12 4C10.6829 4 9.38625 4.32517 8.22504 4.94666C7.06383 5.56814 6.07402 6.4667 5.34348 7.56258C4.61293 8.65846 4.16425 9.91776 4.03727 11.2287C3.91029 12.5396 4.10893 13.8616 4.61556 15.0773" stroke="#001B30" stroke-width="2" stroke-linecap="round" stroke-linejoin="round"/>
<path d="M9.33374 19.9937L12.0004 11.9937L14.6671 19.9937M10.2226 18.2159H13.7782" stroke="#001B30" stroke-width="2" stroke-linecap="round" stroke-linejoin="round"/>
</svg>
