<svg width="24" height="24" viewBox="0 0 24 24" fill="none" xmlns="http://www.w3.org/2000/svg">
<path d="M6.36167 8.2975C6.96258 7.44066 7.7948 6.73474 8.78073 6.24556C9.76666 5.75638 10.8742 5.49989 12 5.5C13.126 5.49976 14.2337 5.7562 15.2197 6.24538C16.2058 6.73456 17.0382 7.44055 17.6392 8.2975L19.0475 7.495C18.2962 6.42435 17.2558 5.54235 16.0235 4.93122C14.7912 4.32009 13.407 3.99973 12 4C10.5931 3.99985 9.20911 4.32028 7.97695 4.9314C6.74479 5.54253 5.7046 6.42446 4.95333 7.495L6.36167 8.2975ZM12 17.5C10.8742 17.5001 9.76666 17.2436 8.78073 16.7544C7.7948 16.2653 6.96258 15.5593 6.36167 14.7025L4.95333 15.505C5.7046 16.5755 6.74479 17.4575 7.97695 18.0686C9.20911 18.6797 10.5931 19.0001 12 19C13.407 19.0003 14.7912 18.6799 16.0235 18.0688C17.2558 17.4576 18.2962 16.5756 19.0475 15.505L17.6392 14.7025C17.0382 15.5594 16.2058 16.2654 15.2197 16.7546C14.2337 17.2438 13.126 17.5002 12 17.5ZM12 8.5C12.221 8.5 12.433 8.57902 12.5893 8.71967C12.7455 8.86032 12.8333 9.05109 12.8333 9.25C12.8333 9.44891 12.7455 9.63968 12.5893 9.78033C12.433 9.92098 12.221 10 12 10C11.779 10 11.567 9.92098 11.4107 9.78033C11.2545 9.63968 11.1667 9.44891 11.1667 9.25C11.1667 9.05109 11.2545 8.86032 11.4107 8.71967C11.567 8.57902 11.779 8.5 12 8.5ZM12 11.5C12.663 11.5 13.2989 11.2629 13.7678 10.841C14.2366 10.419 14.5 9.84674 14.5 9.25C14.5 8.65326 14.2366 8.08097 13.7678 7.65901C13.2989 7.23705 12.663 7 12 7C11.337 7 10.7011 7.23705 10.2322 7.65901C9.76339 8.08097 9.5 8.65326 9.5 9.25C9.5 9.84674 9.76339 10.419 10.2322 10.841C10.7011 11.2629 11.337 11.5 12 11.5ZM12 13.75C11.558 13.75 11.134 13.908 10.8215 14.1893C10.5089 14.4706 10.3333 14.8522 10.3333 15.25H8.66667C8.66667 14.4544 9.01786 13.6913 9.64298 13.1287C10.2681 12.5661 11.1159 12.25 12 12.25C12.8841 12.25 13.7319 12.5661 14.357 13.1287C14.9821 13.6913 15.3333 14.4544 15.3333 15.25H13.6667C13.6667 14.8522 13.4911 14.4706 13.1785 14.1893C12.866 13.908 12.442 13.75 12 13.75ZM4.5 10.75C4.27899 10.75 4.06702 10.829 3.91074 10.9697C3.75446 11.1103 3.66667 11.3011 3.66667 11.5C3.66667 11.6989 3.75446 11.8897 3.91074 12.0303C4.06702 12.171 4.27899 12.25 4.5 12.25C4.72101 12.25 4.93298 12.171 5.08926 12.0303C5.24554 11.8897 5.33333 11.6989 5.33333 11.5C5.33333 11.3011 5.24554 11.1103 5.08926 10.9697C4.93298 10.829 4.72101 10.75 4.5 10.75ZM2 11.5C2 10.9033 2.26339 10.331 2.73223 9.90901C3.20107 9.48705 3.83696 9.25 4.5 9.25C5.16304 9.25 5.79893 9.48705 6.26777 9.90901C6.73661 10.331 7 10.9033 7 11.5C7 12.0967 6.73661 12.669 6.26777 13.091C5.79893 13.5129 5.16304 13.75 4.5 13.75C3.83696 13.75 3.20107 13.5129 2.73223 13.091C2.26339 12.669 2 12.0967 2 11.5ZM18.6667 11.5C18.6667 11.3011 18.7545 11.1103 18.9107 10.9697C19.067 10.829 19.279 10.75 19.5 10.75C19.721 10.75 19.933 10.829 20.0893 10.9697C20.2455 11.1103 20.3333 11.3011 20.3333 11.5C20.3333 11.6989 20.2455 11.8897 20.0893 12.0303C19.933 12.171 19.721 12.25 19.5 12.25C19.279 12.25 19.067 12.171 18.9107 12.0303C18.7545 11.8897 18.6667 11.6989 18.6667 11.5ZM19.5 9.25C18.837 9.25 18.2011 9.48705 17.7322 9.90901C17.2634 10.331 17 10.9033 17 11.5C17 12.0967 17.2634 12.669 17.7322 13.091C18.2011 13.5129 18.837 13.75 19.5 13.75C20.163 13.75 20.7989 13.5129 21.2678 13.091C21.7366 12.669 22 12.0967 22 11.5C22 10.9033 21.7366 10.331 21.2678 9.90901C20.7989 9.48705 20.163 9.25 19.5 9.25Z" fill="#001B30"/>
</svg>
