<svg width="37" height="37" viewBox="0 0 37 37" fill="none" xmlns="http://www.w3.org/2000/svg">
<path fill-rule="evenodd" clip-rule="evenodd" d="M33.9163 18.5002C33.9163 27.0146 27.0141 33.9168 18.4997 33.9168C9.98528 33.9168 3.08301 27.0146 3.08301 18.5002C3.08301 9.98577 9.98528 3.0835 18.4997 3.0835C27.0141 3.0835 33.9163 9.98577 33.9163 18.5002ZM20.0413 10.7918C20.0413 11.6433 19.3511 12.3335 18.4997 12.3335C17.6482 12.3335 16.958 11.6433 16.958 10.7918C16.958 9.94039 17.6482 9.25016 18.4997 9.25016C19.3511 9.25016 20.0413 9.94039 20.0413 10.7918ZM16.958 14.2606C16.3194 14.2606 15.8018 14.7783 15.8018 15.4168C15.8018 16.0554 16.3194 16.5731 16.958 16.5731H17.3434V26.2085C17.3434 26.8471 17.8611 27.3647 18.4997 27.3647C19.1383 27.3647 19.6559 26.8471 19.6559 26.2085V15.4168C19.6559 14.7783 19.1383 14.2606 18.4997 14.2606H16.958Z" fill="#B3B3B3"/>
</svg>
