<svg width="28" height="28" viewBox="0 0 28 28" fill="none" xmlns="http://www.w3.org/2000/svg">
<path d="M20.5 20.5L16.1667 16.1667M7.5 12.5556C7.5 13.2195 7.63077 13.8769 7.88483 14.4902C8.1389 15.1036 8.51129 15.6609 8.98074 16.1304C9.45019 16.5998 10.0075 16.9722 10.6209 17.2263C11.2342 17.4803 11.8917 17.6111 12.5556 17.6111C13.2195 17.6111 13.8769 17.4803 14.4902 17.2263C15.1036 16.9722 15.6609 16.5998 16.1304 16.1304C16.5998 15.6609 16.9722 15.1036 17.2263 14.4902C17.4803 13.8769 17.6111 13.2195 17.6111 12.5556C17.6111 11.8917 17.4803 11.2342 17.2263 10.6209C16.9722 10.0075 16.5998 9.45019 16.1304 8.98074C15.6609 8.51129 15.1036 8.1389 14.4902 7.88483C13.8769 7.63077 13.2195 7.5 12.5556 7.5C11.8917 7.5 11.2342 7.63077 10.6209 7.88483C10.0075 8.1389 9.45019 8.51129 8.98074 8.98074C8.51129 9.45019 8.1389 10.0075 7.88483 10.6209C7.63077 11.2342 7.5 11.8917 7.5 12.5556Z" stroke="#001B30" stroke-width="2" stroke-linecap="round" stroke-linejoin="round"/>
</svg>
