<svg width="24" height="24" viewBox="0 0 24 24" fill="none" xmlns="http://www.w3.org/2000/svg">
<path d="M14.6689 12.7998C15.605 12.9903 16.5776 12.8741 17.4426 12.4685C18.3075 12.0629 19.0187 11.3894 19.4708 10.5478C19.9229 9.70627 20.0918 8.74146 19.9525 7.79639C19.8132 6.85132 19.373 5.97629 18.6973 5.30097C18.0216 4.62566 17.1463 4.18601 16.2011 4.04719C15.2559 3.90836 14.2912 4.07775 13.4498 4.53025C12.6084 4.98275 11.9353 5.69427 11.5301 6.55936C11.1249 7.42445 11.0092 8.39707 11.2002 9.33307M14.6689 12.7998L11.2002 9.33396L4.52142 16.9643C4.18781 17.2976 4.00025 17.7497 4 18.2212C3.99988 18.4547 4.04574 18.6859 4.13498 18.9016C4.22422 19.1174 4.35507 19.3134 4.52009 19.4786C4.6851 19.6438 4.88103 19.7748 5.09669 19.8643C5.31236 19.9538 5.54353 19.9999 5.77702 20C6.24856 20.0003 6.70089 19.8132 7.0345 19.4799L14.6689 12.7998Z" stroke="#001B30" stroke-width="2" stroke-linecap="round" stroke-linejoin="round"/>
</svg>
