<svg width="24" height="24" viewBox="0 0 24 24" fill="none" xmlns="http://www.w3.org/2000/svg">
<path d="M18 7.97852C18.7956 7.97852 19.5587 8.29459 20.1213 8.85719C20.6839 9.4198 21 10.1829 21 10.9785C21 11.7742 20.6839 12.5372 20.1213 13.0998C19.5587 13.6624 18.7956 13.9785 18 13.9785M10 7.97852V18.9785C10 19.2437 9.89464 19.4981 9.70711 19.6856C9.51957 19.8732 9.26522 19.9785 9 19.9785H8C7.73478 19.9785 7.48043 19.8732 7.29289 19.6856C7.10536 19.4981 7 19.2437 7 18.9785V13.9785" stroke="#001B30" stroke-width="2" stroke-linecap="round" stroke-linejoin="round"/>
<path d="M12 7.97846L16.524 4.20846C16.6555 4.09897 16.8154 4.02922 16.9851 4.00737C17.1548 3.98552 17.3271 4.01249 17.482 4.08511C17.6369 4.15774 17.7679 4.27301 17.8597 4.41741C17.9514 4.56182 18.0001 4.72938 18 4.90046V17.0565C18.0001 17.2275 17.9514 17.3951 17.8597 17.5395C17.7679 17.6839 17.6369 17.7992 17.482 17.8718C17.3271 17.9444 17.1548 17.9714 16.9851 17.9496C16.8154 17.9277 16.6555 17.858 16.524 17.7485L12 13.9785H4C3.73478 13.9785 3.48043 13.8731 3.29289 13.6856C3.10536 13.498 3 13.2437 3 12.9785V8.97846C3 8.71325 3.10536 8.45889 3.29289 8.27136C3.48043 8.08382 3.73478 7.97846 4 7.97846H12Z" stroke="#001B30" stroke-width="2" stroke-linecap="round" stroke-linejoin="round"/>
</svg>
