<svg width="28" height="28" viewBox="0 0 28 28" fill="none" xmlns="http://www.w3.org/2000/svg">
<path d="M11.8125 16.1666L10.875 15.3333C10.5 15.7083 10.0799 16.0277 9.61458 16.2916C9.14931 16.5555 8.65278 16.743 8.125 16.8541L6.35417 11.1666C6.28472 10.9305 6.30556 10.7152 6.41667 10.5208C6.52778 10.3263 6.70139 10.1944 6.9375 10.125L8.16667 9.79163V6.99996C8.16667 6.54163 8.32986 6.14926 8.65625 5.82288C8.98264 5.49649 9.375 5.33329 9.83333 5.33329H11.9167V3.66663H16.0833V5.33329H18.1667C18.625 5.33329 19.0174 5.49649 19.3437 5.82288C19.6701 6.14926 19.8333 6.54163 19.8333 6.99996V9.79163L21.0625 10.125C21.2986 10.1944 21.4722 10.3263 21.5833 10.5208C21.6944 10.7152 21.7153 10.9305 21.6458 11.1666L19.875 16.8541C19.3472 16.743 18.8507 16.5555 18.3854 16.2916C17.9201 16.0277 17.5 15.7083 17.125 15.3333L16.1875 16.1666C15.5625 16.7222 14.8333 17 14 17C13.1667 17 12.4375 16.7222 11.8125 16.1666ZM14.0417 15.3333C14.4722 15.3333 14.8542 15.1909 15.1875 14.9062C15.5208 14.6215 15.8264 14.3194 16.1042 14L17.0625 12.8958L17.9167 13.7708C18.0694 13.9236 18.2257 14.0659 18.3854 14.1979C18.5451 14.3298 18.7014 14.4652 18.8542 14.6041L19.8125 11.5L14 9.97913L8.20833 11.5L9.16667 14.6041C9.31944 14.4652 9.47569 14.3298 9.63542 14.1979C9.79514 14.0659 9.95139 13.9236 10.1042 13.7708L10.9583 12.8958L11.9167 14C12.1944 14.3333 12.5069 14.6388 12.8542 14.9166C13.2014 15.1944 13.5972 15.3333 14.0417 15.3333ZM9.83333 9.35413L14 8.24996L18.1667 9.35413V6.99996H9.83333V9.35413Z" fill="#002745"/>
<g clip-path="url(#clip0_29_1851)">
<path d="M11 16.95V10.95H13V16.95H11ZM15 16.95V10.95H17V16.95H15ZM14 24.95C12.2 24.95 10.5125 24.5375 8.9375 23.7125C7.3625 22.8875 6.05 21.7333 5 20.25V22.95H3V16.95H9V18.95H6.55C7.4 20.2 8.47917 21.1792 9.7875 21.8875C11.0958 22.5958 12.5 22.95 14 22.95C15.9167 22.95 17.6542 22.4 19.2125 21.3C20.7708 20.2 21.8667 18.7417 22.5 16.925L24.45 17.375C23.7 19.6417 22.3667 21.4708 20.45 22.8625C18.5333 24.2542 16.3833 24.95 14 24.95ZM3.05 12.95C3.16667 11.8333 3.43333 10.7625 3.85 9.7375C4.26667 8.7125 4.84167 7.76667 5.575 6.9C6.1315 7.4565 6.4435 7.7685 7 8.325C6.46667 9.00833 5.7 10.5125 5.7 10.5125C5.36667 11.2875 5.15833 12.1 5.075 12.95H3.05ZM8.4 6.925L6.975 5.5C7.85833 4.76667 8.80833 4.1875 9.825 3.7625C10.8417 3.3375 11.9 3.08333 13 3V5C12.15 5.08333 11.3417 5.29167 10.575 5.625C9.80833 5.95833 9.08333 6.39167 8.4 6.925ZM19.625 6.925C18.9417 6.39167 18.2125 5.95833 17.4375 5.625C16.6625 5.29167 15.85 5.08333 15 5V3C16.1167 3.1 17.1875 3.35833 18.2125 3.775C19.2375 4.19167 20.1833 4.76667 21.05 5.5L19.625 6.925ZM22.95 12.95C22.8667 12.1 22.6583 11.2875 22.325 10.5125C21.9917 9.7375 21.5583 9.00833 21.025 8.325L22.45 6.9C23.1833 7.76667 23.7583 8.7125 24.175 9.7375C24.5917 10.7625 24.85 11.8333 24.95 12.95H22.95Z" fill="#002745"/>
<rect x="19" y="17" width="6" height="2" fill="#002745"/>
<rect x="23" y="17" width="2" height="6" fill="#002745"/>
</g>
<defs>
<clipPath id="clip0_29_1851">
<rect width="28" height="9" fill="white" transform="translate(0 17)"/>
</clipPath>
</defs>
</svg>
