<svg width="37" height="37" viewBox="0 0 37 37" fill="none" xmlns="http://www.w3.org/2000/svg">
<path fill-rule="evenodd" clip-rule="evenodd" d="M15.367 6.42246C16.7324 4.02585 20.267 4.02584 21.6324 6.42246L33.4602 27.1833C34.7872 29.5125 33.06 32.375 30.3275 32.375H6.67183C3.93934 32.375 2.21213 29.5126 3.53914 27.1833L15.367 6.42246ZM20.0412 26.2083C20.0412 27.0598 19.351 27.75 18.4996 27.75C17.6481 27.75 16.9579 27.0598 16.9579 26.2083C16.9579 25.3569 17.6481 24.6667 18.4996 24.6667C19.351 24.6667 20.0412 25.3569 20.0412 26.2083ZM19.6558 13.875C19.6558 13.2364 19.1382 12.7187 18.4996 12.7187C17.861 12.7187 17.3433 13.2364 17.3433 13.875V21.5833C17.3433 22.2219 17.861 22.7396 18.4996 22.7396C19.1382 22.7396 19.6558 22.2219 19.6558 21.5833V13.875Z" fill="#E8B931"/>
</svg>
