<svg width="28" height="28" viewBox="0 0 28 28" fill="none" xmlns="http://www.w3.org/2000/svg">
<path d="M15.8125 18.1666L14.875 17.3333C14.5 17.7083 14.0799 18.0277 13.6146 18.2916C13.1493 18.5555 12.6528 18.743 12.125 18.8541L10.3542 13.1666C10.2847 12.9305 10.3056 12.7152 10.4167 12.5208C10.5278 12.3263 10.7014 12.1944 10.9375 12.125L12.1667 11.7916V8.99996C12.1667 8.54163 12.3299 8.14926 12.6562 7.82288C12.9826 7.49649 13.375 7.33329 13.8333 7.33329H15.9167V5.66663H20.0833V7.33329H22.1667C22.625 7.33329 23.0174 7.49649 23.3437 7.82288C23.6701 8.14926 23.8333 8.54163 23.8333 8.99996V11.7916L25.0625 12.125C25.2986 12.1944 25.4722 12.3263 25.5833 12.5208C25.6944 12.7152 25.7153 12.9305 25.6458 13.1666L23.875 18.8541C23.3472 18.743 22.8507 18.5555 22.3854 18.2916C21.9201 18.0277 21.5 17.7083 21.125 17.3333L20.1875 18.1666C19.5625 18.7222 18.8333 19 18 19C17.1667 19 16.4375 18.7222 15.8125 18.1666ZM18.0417 17.3333C18.4722 17.3333 18.8542 17.1909 19.1875 16.9062C19.5208 16.6215 19.8264 16.3194 20.1042 16L21.0625 14.8958L21.9167 15.7708C22.0694 15.9236 22.2257 16.0659 22.3854 16.1979C22.5451 16.3298 22.7014 16.4652 22.8542 16.6041L23.8125 13.5L18 11.9791L12.2083 13.5L13.1667 16.6041C13.3194 16.4652 13.4757 16.3298 13.6354 16.1979C13.7951 16.0659 13.9514 15.9236 14.1042 15.7708L14.9583 14.8958L15.9167 16C16.1944 16.3333 16.5069 16.6388 16.8542 16.9166C17.2014 17.1944 17.5972 17.3333 18.0417 17.3333ZM13.8333 11.3541L18 10.25L22.1667 11.3541V8.99996H13.8333V11.3541Z" fill="#002745"/>
<g clip-path="url(#clip0_31_1877)">
<path d="M10.05 11H16.05V13H10.05V11ZM10.05 15H16.05V17H10.05V15ZM2.05 14C2.05 12.2 2.4625 10.5125 3.2875 8.9375C4.1125 7.3625 5.26667 6.05 6.75 5H4.05V3H10.05V9H8.05V6.55C6.8 7.4 5.82083 8.47917 5.1125 9.7875C4.40417 11.0958 4.05 12.5 4.05 14C4.05 15.9167 4.6 17.6542 5.7 19.2125C6.8 20.7708 8.25833 21.8667 10.075 22.5L9.625 24.45C7.35833 23.7 5.52917 22.3667 4.1375 20.45C2.74583 18.5333 2.05 16.3833 2.05 14ZM14.05 3.05C15.1667 3.16667 16.2375 3.43333 17.2625 3.85C18.2875 4.26667 19.2333 4.84167 20.1 5.575C19.5435 6.1315 19.2315 6.4435 18.675 7C17.9917 6.46667 16.4875 5.7 16.4875 5.7C15.7125 5.36667 14.9 5.15833 14.05 5.075V3.05ZM20.075 8.4L21.5 6.975C22.2333 7.85833 22.8125 8.80833 23.2375 9.825C23.6625 10.8417 23.9167 11.9 24 13H22C21.9167 12.15 21.7083 11.3417 21.375 10.575C21.0417 9.80833 20.6083 9.08333 20.075 8.4ZM20.075 19.625C20.6083 18.9417 21.0417 18.2125 21.375 17.4375C21.7083 16.6625 21.9167 15.85 22 15H24C23.9 16.1167 23.6417 17.1875 23.225 18.2125C22.8083 19.2375 22.2333 20.1833 21.5 21.05L20.075 19.625ZM14.05 22.95C14.9 22.8667 15.7125 22.6583 16.4875 22.325C17.2625 21.9917 17.9917 21.5583 18.675 21.025L20.1 22.45C19.2333 23.1833 18.2875 23.7583 17.2625 24.175C16.2375 24.5917 15.1667 24.85 14.05 24.95V22.95Z" fill="#002745"/>
<rect x="10" y="19" width="6" height="2" transform="rotate(90 10 19)" fill="#002745"/>
<rect x="10" y="23" width="2" height="6" transform="rotate(90 10 23)" fill="#002745"/>
</g>
<defs>
<clipPath id="clip0_31_1877">
<rect width="28" height="9" fill="white" transform="matrix(0 1 -1 0 10 0)"/>
</clipPath>
</defs>
</svg>
