<svg width="24" height="24" viewBox="0 0 24 24" fill="none" xmlns="http://www.w3.org/2000/svg">
<path d="M20 3.5C20.5523 3.5 21 3.94772 21 4.5V17.5C21 18.0523 20.5523 18.5 20 18.5H9V3.5H20Z" stroke="#001B30" stroke-width="2"/>
<path d="M15 15.5C15.7957 15.5 16.5587 15.1839 17.1213 14.6213C17.684 14.0587 18 13.2957 18 12.5C18 11.7043 17.6839 10.9413 17.1213 10.3787C16.5587 9.81605 15.7957 9.5 15 9.5C14.2043 9.5 13.4413 9.81605 12.8787 10.3787C12.3161 10.9413 12 11.7043 12 12.5C12 13.2957 12.3161 14.0587 12.8787 14.6213C13.4413 15.1839 14.2043 15.5 15 15.5Z" stroke="#001B30" stroke-width="2" stroke-linecap="round" stroke-linejoin="round"/>
<path d="M15 13.5C15.2652 13.5 15.5196 13.3946 15.7071 13.2071C15.8946 13.0196 16 12.7652 16 12.5C16 12.2348 15.8946 11.9804 15.7071 11.7929C15.5196 11.6054 15.2652 11.5 15 11.5C14.7348 11.5 14.4804 11.6054 14.2929 11.7929C14.1054 11.9804 14 12.2348 14 12.5C14 12.7652 14.1054 13.0196 14.2929 13.2071C14.4804 13.3946 14.7348 13.5 15 13.5Z" fill="#001B30"/>
<path d="M13 6.5L17 6.5" stroke="#001B30" stroke-width="2" stroke-linecap="round"/>
<rect x="3" y="2.5" width="6" height="17" rx="1" stroke="#001B30" stroke-width="2"/>
<path d="M6 20V20.5C6 21.6046 6.89543 22.5 8 22.5H9.5C10.6046 22.5 11.5 21.6046 11.5 20.5V18" stroke="#001B30" stroke-width="2"/>
</svg>
