<svg width="24" height="24" viewBox="0 0 24 24" fill="none" xmlns="http://www.w3.org/2000/svg">
<path d="M17.436 13.3526C16.7872 11.8537 15.8356 10.6089 14.6812 9.74891L14.0489 10.8653C13.9472 11.0448 13.798 11.1705 13.6296 11.2185C13.4612 11.2665 13.2851 11.2335 13.1348 11.1258C12.1443 10.4167 11.0471 9.98632 9.91576 9.86309C9.7392 9.8436 9.57512 9.73925 9.45624 9.57083C9.33735 9.40242 9.2724 9.18231 9.27433 8.9544L9.30814 4.91193C9.30998 4.68762 9.37647 4.4718 9.49476 4.30626C9.61304 4.14071 9.7747 4.03721 9.94845 4.01578C10.3223 3.96937 10.6988 3.94776 11.0779 3.95093C17.1097 4.00137 21.9474 10.3298 21.8825 18.0849C21.8785 18.5723 21.8551 19.056 21.8126 19.5358C21.7929 19.7588 21.7097 19.9648 21.5789 20.114C21.4481 20.2633 21.2791 20.345 21.1047 20.3435L17.9605 20.3172C17.7833 20.3158 17.6132 20.2285 17.4843 20.0727C17.3554 19.917 17.2771 19.7042 17.265 19.4769C17.1887 18.0204 16.8729 16.6025 16.3386 15.3168C16.2574 15.1217 16.2348 14.8949 16.2751 14.6791C16.3153 14.4634 16.4156 14.2738 16.5569 14.1462L17.436 13.3526ZM19.2081 13.9627L17.859 15.1809C18.2303 16.2385 18.4812 17.3598 18.6042 18.5105L20.4624 18.5261C20.4684 18.3751 20.472 18.2241 20.4732 18.0731C20.5297 11.3182 16.3166 5.80682 11.0628 5.76288C10.9453 5.7619 10.8279 5.76394 10.7104 5.76899L10.6904 8.15805C11.5831 8.33605 12.4507 8.67803 13.2667 9.17353L14.2373 7.46017C14.6206 7.65587 14.9927 7.88605 15.3506 8.14901L15.3912 8.17925C16.7648 9.20228 17.897 10.6834 18.6689 12.4669L18.6917 12.5196C18.8902 12.9842 19.0628 13.4664 19.2081 13.9627Z" fill="#001B30"/>
<path d="M6.48595 9.95996C7.14728 11.4534 8.10926 12.6902 9.27082 13.5405L9.89375 12.4189C9.99392 12.2385 10.142 12.1116 10.3101 12.0622C10.4781 12.0128 10.6544 12.0443 10.8056 12.1507C11.802 12.8515 12.9028 13.2727 14.0351 13.3865C14.2118 13.4045 14.3768 13.5075 14.4971 13.6749C14.6173 13.8423 14.6841 14.0619 14.6841 14.2898V18.3324C14.6842 18.5567 14.6195 18.7731 14.5026 18.9396C14.3857 19.1061 14.2249 19.211 14.0513 19.2339C13.6778 19.2834 13.3015 19.3082 12.9224 19.3082C6.89043 19.3082 2 13.0205 2 5.26502C2 4.77759 2.01926 4.29378 2.05778 3.8136C2.07558 3.59044 2.15713 3.38371 2.28665 3.23342C2.41618 3.08312 2.58446 2.99995 2.75893 3H5.90318C6.08045 2.99997 6.25122 3.08585 6.38143 3.2405C6.51165 3.39516 6.59174 3.60723 6.60574 3.83443C6.69423 5.29031 7.02182 6.70552 7.56692 7.98667C7.64969 8.18107 7.67418 8.40773 7.63574 8.62377C7.5973 8.83981 7.49861 9.03025 7.35834 9.15905L6.48595 9.95996ZM4.70876 9.36471L6.04764 8.13526C5.66758 7.08079 5.40725 5.96162 5.27462 4.81202H3.41639C3.4117 4.96302 3.40935 5.11402 3.40935 5.26502C3.40935 12.0202 7.66839 17.4961 12.9224 17.4961C13.0399 17.4961 13.1573 17.4931 13.2748 17.4871V15.0979C12.3806 14.9274 11.5102 14.5927 10.69 14.104L9.73379 15.8255C9.34885 15.633 8.97492 15.4059 8.61477 15.1459L8.5739 15.116C7.19182 14.1045 6.04725 12.633 5.26052 10.856L5.23727 10.8035C5.03487 10.3405 4.85826 9.85975 4.70876 9.36471Z" fill="#001B30"/>
</svg>
