<svg width="37" height="37" viewBox="0 0 37 37" fill="none" xmlns="http://www.w3.org/2000/svg">
<path fill-rule="evenodd" clip-rule="evenodd" d="M33.9163 18.4999C33.9163 27.0143 27.0141 33.9166 18.4997 33.9166C9.98529 33.9166 3.08301 27.0143 3.08301 18.4999C3.08301 9.98553 9.98529 3.08325 18.4997 3.08325C27.0141 3.08325 33.9163 9.98553 33.9163 18.4999ZM23.6778 23.6779C23.2262 24.1295 22.4941 24.1295 22.0426 23.6779L18.4997 20.135L14.9568 23.6779C14.5052 24.1295 13.7731 24.1295 13.3216 23.6779C12.87 23.2264 12.87 22.4943 13.3216 22.0427L16.8645 18.4998L13.3216 14.9569C12.8701 14.5054 12.8701 13.7733 13.3216 13.3217C13.7732 12.8702 14.5052 12.8702 14.9568 13.3217L18.4997 16.8646L22.0426 13.3218C22.4941 12.8702 23.2262 12.8702 23.6778 13.3218C24.1293 13.7733 24.1293 14.5054 23.6778 14.9569L20.1349 18.4998L23.6778 22.0427C24.1293 22.4943 24.1293 23.2264 23.6778 23.6779Z" fill="#EC221F"/>
</svg>
