<svg width="36" height="20" viewBox="0 0 36 20" fill="none" xmlns="http://www.w3.org/2000/svg">
<g clip-path="url(#clip0_65_951)">
<rect width="36" height="20" rx="10" fill="#2B77A9"/>
<g clip-path="url(#clip1_65_951)">
<path d="M13.7279 9.97063L22.2132 9.97063M21.5061 5.02088L22.2125 4.96926C23.5387 4.96936 24.8105 5.49626 25.7482 6.43407C26.6858 7.37187 27.2126 8.64376 27.2125 9.96992C27.2124 11.2961 26.6855 12.5679 25.7477 13.5056C24.8098 14.4432 23.538 14.97 22.2118 14.9699L21.5061 14.9204M14.435 14.9204L13.7767 15.0172C12.4426 15.0093 11.1654 14.4757 10.2221 13.5324C9.27868 12.589 8.74516 11.3118 8.73717 9.9777C8.7332 9.31999 8.85981 8.66802 9.10967 8.05961C9.35954 7.45119 9.72768 6.89842 10.1928 6.43334C10.6578 5.96825 11.2106 5.60011 11.819 5.35025C12.4275 5.10038 13.0794 4.97377 13.7371 4.97775L14.435 5.02088" stroke="white" stroke-width="2" stroke-linecap="round" stroke-linejoin="round"/>
</g>
</g>
<defs>
<clipPath id="clip0_65_951">
<rect width="36" height="20" fill="white"/>
</clipPath>
<clipPath id="clip1_65_951">
<rect width="24" height="24" fill="white" transform="translate(17.9706 -7) rotate(45)"/>
</clipPath>
</defs>
</svg>
