<svg width="28" height="28" viewBox="0 0 28 28" fill="none" xmlns="http://www.w3.org/2000/svg">
<path d="M3 14C3 15.4445 3.28452 16.8749 3.83733 18.2095C4.39013 19.5441 5.20038 20.7567 6.22183 21.7782C7.24327 22.7996 8.4559 23.6099 9.79048 24.1627C11.1251 24.7155 12.5555 25 14 25C15.4445 25 16.8749 24.7155 18.2095 24.1627C19.5441 23.6099 20.7567 22.7996 21.7782 21.7782C22.7996 20.7567 23.6099 19.5441 24.1627 18.2095C24.7155 16.8749 25 15.4445 25 14C25 12.5555 24.7155 11.1251 24.1627 9.79048C23.6099 8.4559 22.7996 7.24327 21.7782 6.22183C20.7567 5.20038 19.5441 4.39013 18.2095 3.83733C16.8749 3.28452 15.4445 3 14 3C12.5555 3 11.1251 3.28452 9.79048 3.83733C8.4559 4.39013 7.24327 5.20038 6.22183 6.22183C5.20038 7.24327 4.39013 8.4559 3.83733 9.79048C3.28452 11.1251 3 12.5555 3 14Z" stroke="black" stroke-width="2" stroke-linecap="round" stroke-linejoin="round"/>
<path d="M14.0729 3C12.3442 4.27843 10.9397 5.94353 9.9719 7.86176C9.00411 9.77999 8.5 11.898 8.5 14.0458C8.5 16.1937 9.00411 18.3117 9.9719 20.2299C10.9397 22.1481 12.3442 23.8132 14.0729 25.0917M15.3021 3C17.0308 4.27843 18.4353 5.94353 19.4031 7.86176C20.3709 9.77999 20.875 11.898 20.875 14.0458C20.875 16.1937 20.3709 18.3117 19.4031 20.2299C18.4353 22.1481 17.0308 23.8132 15.3021 25.0917M14.6875 3V25.0917" stroke="black" stroke-width="2" stroke-linecap="round" stroke-linejoin="round"/>
</svg>
