<svg width="28" height="28" viewBox="0 0 28 28" fill="none" xmlns="http://www.w3.org/2000/svg">
<path d="M3 14C3 15.4445 3.28452 16.8749 3.83733 18.2095C4.39013 19.5441 5.20038 20.7567 6.22183 21.7782C7.24327 22.7996 8.4559 23.6099 9.79048 24.1627C11.1251 24.7155 12.5555 25 14 25C15.4445 25 16.8749 24.7155 18.2095 24.1627C19.5441 23.6099 20.7567 22.7996 21.7782 21.7782C22.7996 20.7567 23.6099 19.5441 24.1627 18.2095C24.7155 16.8749 25 15.4445 25 14M3 14C3 12.5555 3.28452 11.1251 3.83733 9.79048C4.39013 8.4559 5.20038 7.24327 6.22183 6.22183C7.24327 5.20038 8.4559 4.39013 9.79048 3.83733C11.1251 3.28452 12.5555 3 14 3C15.4445 3 16.8749 3.28452 18.2095 3.83733C19.5441 4.39013 20.7567 5.20038 21.7782 6.22183C22.7996 7.24327 23.6099 8.4559 24.1627 9.79048C24.7155 11.1251 25 12.5555 25 14M3 14H25M4.95556 7.88889H23.0444M4.95556 20.1111H23.0444" stroke="black" stroke-width="2" stroke-linecap="round" stroke-linejoin="round"/>
</svg>
